<svg id="Layer_1" data-name="Layer 1" xmlns="http://www.w3.org/2000/svg" width="665.9" height="698.3" viewBox="0 0 665.9 698.3">
  <defs>
    <style>
      .cls-1, .cls-6 {
        fill: #14254c;
      }

      .cls-2, .cls-5 {
        fill: #84cef2;
      }

      .cls-3, .cls-8 {
        fill: #fab16a;
      }

      .cls-4 {
        fill: #0c1b38;
      }

      .cls-5, .cls-6, .cls-7, .cls-8, .cls-9 {
        fill-rule: evenodd;
      }

      .cls-7 {
        fill: #31475c;
      }

      .cls-9 {
        fill: #dc7f1b;
      }

      .cls-10 {
        fill: #fff;
      }
    </style>
  </defs>
  <g>
    <path class="cls-1" d="M358.7,368.6a20.5,20.5,0,0,1-11.7-3.7c-21.7-15.2-43.1-31.5-63.6-48.2-14.6-12-29.2-24.6-43.2-37.3a20.4,20.4,0,0,1,27.4-30.2c13.5,12.2,27.5,24.3,41.7,35.9,19.7,16.1,40.3,31.8,61.2,46.4a20.5,20.5,0,0,1,4.9,28.5A20.2,20.2,0,0,1,358.7,368.6Z"/>
    <polygon class="cls-2" points="415.3 370.8 360.4 318.4 328.3 357.5 397.7 390 415.3 370.8"/>
    <polygon points="260.9 234.1 290.9 264 265.2 274.3 233.5 241.8 233.5 200.7 260.9 200.7 260.9 234.1"/>
    <path class="cls-2" d="M362.8,404.9l12.8-7.2a14.1,14.1,0,0,1,14.9.7l14.5,9.9a3,3,0,0,1-.3,5.1l-1.9,1a3,3,0,0,1-2.1.2Z"/>
    <path class="cls-3" d="M91.6,675.7a11.7,11.7,0,0,1-5.5-1.3,12.2,12.2,0,0,1-5.4-16.5l67.2-131.4a12.2,12.2,0,0,1,21.8,11.1L102.5,669A12,12,0,0,1,91.6,675.7Z"/>
    <path class="cls-3" d="M79.3,662.7a12.5,12.5,0,0,0,12.6,13.2h4.7l42.7-.6a7.6,7.6,0,0,0,7.5-6.5,7.8,7.8,0,0,0-6.4-8.8l-22.7-3.9-23.4-4.8a12.5,12.5,0,0,0-15,11.4Z"/>
    <path class="cls-3" d="M417.1,675.7a12.1,12.1,0,0,1-11.3-7.4L347.1,532.9a12.3,12.3,0,1,1,22.5-9.7l58.7,135.4a12.3,12.3,0,0,1-6.4,16.1A11.8,11.8,0,0,1,417.1,675.7Z"/>
    <path class="cls-3" d="M404.7,662.7a12.5,12.5,0,0,0,12.6,13.2h4.8l42.6-.6a7.7,7.7,0,0,0,1.1-15.3l-22.7-3.9-23.4-4.8a12.5,12.5,0,0,0-15,11.4Z"/>
    <path d="M226.9,407l44,125.8,1.5,104.6a3.5,3.5,0,0,0,3.5,3.5H466.4a3.6,3.6,0,0,0,2.9-5.6L375.1,499.6,266.6,395.2Z"/>
    <path d="M183.6,385.4,47.5,636.4a3.6,3.6,0,0,0,3.1,5.3l206-.8a3.5,3.5,0,0,0,3.5-3.5l.7-99.9L236.9,400.8Z"/>
    <path class="cls-2" d="M183.8,406l78.8,9.4L278.2,296a55.3,55.3,0,0,0-54.5-63.9h0A55.3,55.3,0,0,0,169.1,296Z"/>
    <path class="cls-1" d="M270.3,377.7l-92.4-9.1,4,32.7a42.7,42.7,0,0,0,84.7,1.1Z"/>
    <g>
      <path class="cls-1" d="M134.4,434.1,165.8,462a2.9,2.9,0,0,0,4.4-.6l43.2-65.5a2.9,2.9,0,0,0-1.6-4.4l-22.6-7a2.9,2.9,0,0,0-2.8.6l-51.9,44.5A3,3,0,0,0,134.4,434.1Z"/>
      <path class="cls-1" d="M295.4,451,318,435.3a2.9,2.9,0,0,0,.1-4.8l-55-40.3a3.1,3.1,0,0,0-3.1-.2l-18.6,10a3,3,0,0,0-.6,4.8l51,46A2.9,2.9,0,0,0,295.4,451Z"/>
      <path class="cls-1" d="M283.3,456.3l-36.2-58.2-45.6-2.5a2.8,2.8,0,0,0-3,2.2L182,470Z"/>
    </g>
    <g>
      <path class="cls-3" d="M421.9,355.6l30.7-48.9,91.3-123,66.4-88.8a3.7,3.7,0,0,1,5.2-.8h0a3.8,3.8,0,0,1,1,5.2l-61.7,92.2-86,126.7-36.1,45.1Z"/>
      <rect x="543.7" y="179.2" width="15.1" height="11.74" rx="2.7" transform="translate(209 -285) rotate(35.4)"/>
      <rect x="607.4" y="92.8" width="10" height="11.02" rx="2.3" transform="translate(170 -336.5) rotate(35.4)"/>
      <polygon points="373.9 453.8 355.9 441 422 355.3 433 363.1 373.9 453.8"/>
      <rect x="401.2" y="352.6" width="56.2" height="9.52" rx="2.2" transform="translate(286.2 -182.6) rotate(35.4)"/>
    </g>
    <path class="cls-2" d="M393.8,440.5,404.9,425a8.7,8.7,0,0,0-3.9-13.1L371.3,400l-12.1,22.5L380.9,442A8.7,8.7,0,0,0,393.8,440.5Z"/>
    <path class="cls-4" d="M310.1,398.9a19.3,19.3,0,0,1-7-1.3,189.9,189.9,0,0,1-60.9-36.3c-33.7-29.9-49.4-65.3-56.6-89.7A20.4,20.4,0,1,1,224.7,260c5.7,19.3,18.1,47.3,44.6,70.8a147.4,147.4,0,0,0,47.8,28.5,20.4,20.4,0,0,1,12.2,26.2A20.7,20.7,0,0,1,310.1,398.9Z"/>
    <polygon class="cls-2" points="379.6 399.9 320.9 354 287.2 399.9 370.1 425.8 379.6 399.9"/>
    <path d="M242.9,234l-41.1,36-49.6-19.7L180.1,228a16.9,16.9,0,0,0,6.3-13.2V189.5h56.5Z"/>
    <g>
      <g>
        <path id="Fill-7" class="cls-5" d="M200,144.7c-15-7.7-22.9-16.8-27.3-23.9s-6.7-15.7-14.5-19c-4.8-2-7.8-.7-17.6-.8a109.6,109.6,0,0,1-21.3-2.6l-1.4,10.7a54.1,54.1,0,0,0,19.3,2.5c8.5-.5,11.8-2.9,16.8-1.1,6.8,2.4,8.3,9.5,12.3,15.6S179.9,140.9,200,144.7Z"/>
        <path id="Fill-7-2" data-name="Fill-7" class="cls-5" d="M200.9,144.2c-16.9-.6-27.8-5.5-34.8-10s-12-9.9-21.3-11c-6.8-.9-9.9,1.2-18.2.4a48.2,48.2,0,0,1-17.9-5.3l-2.2,11.5a53.3,53.3,0,0,0,17,3.9c9.6.5,13.4-2.1,21.2-.9s11.7,5.2,17.8,8.9S181.1,149.3,200.9,144.2Z"/>
        <path id="Fill-12" class="cls-6" d="M203.1,127.3h15.5a42.9,42.9,0,0,1,42.9,43V204a27.2,27.2,0,0,1-27.2,27.3H213.2A27.2,27.2,0,0,1,186,204V144.4a17.2,17.2,0,0,1,17.1-17.1"/>
        <path id="Fill-14" class="cls-7" d="M189.9,185.2a34,34,0,1,0,34-34,34,34,0,0,0-34,34"/>
        <path class="cls-8" d="M194.4,168.6v-.3a33.9,33.9,0,0,1,59,.1V202a33.9,33.9,0,0,1-59,.1Z"/>
        <polygon id="Fill-20" class="cls-9" points="237.9 193.3 222.5 193.3 222.5 166.6 237.9 193.3"/>
        <g>
          <polygon id="Stroke-28" class="cls-1" points="257.9 164.1 187.4 164.1 187.4 160.7 257.9 160.7 257.9 164.1"/>
          <polygon id="Stroke-30" class="cls-1" points="257.9 179.6 187.4 179.6 187.4 176.2 257.9 176.2 257.9 179.6"/>
          <polygon id="Stroke-32" class="cls-1" points="257.9 210.5 191.6 210.5 191.6 206.8 257.9 206.8 257.9 210.5"/>
          <polygon id="Stroke-34" class="cls-1" points="257.9 195 187.4 195 187.4 191.4 257.9 191.4 257.9 195"/>
        </g>
      </g>
      <g>
        <rect class="cls-10" x="203.6" y="168.5" width="8.5" height="5.15" rx="2.5" transform="translate(415.7 342.2) rotate(180)"/>
        <rect class="cls-10" x="238.6" y="168.5" width="8.5" height="5.15" rx="2.5" transform="translate(485.6 342.2) rotate(180)"/>
        <circle cx="212.1" cy="171.1" r="2.6"/>
        <circle cx="246.5" cy="171.1" r="2.6"/>
      </g>
    </g>
    <path class="cls-2" d="M420.3,402.8l10.9-15.1a8.7,8.7,0,0,0-4.3-13.3l-6-2a10,10,0,0,0-11.6,4l-7.4,11.5a10,10,0,0,0,1.8,13l3.9,3.4A8.7,8.7,0,0,0,420.3,402.8Z"/>
    <path class="cls-2" d="M389.8,366.7l12.7-7.1a14.2,14.2,0,0,1,15,.8l14.4,10a3,3,0,0,1-.4,5.2l-1.8.9a3.1,3.1,0,0,1-2.1.2Z"/>
  </g>
</svg>
