<svg id="Layer_1" data-name="Layer 1" xmlns="http://www.w3.org/2000/svg" width="665.9" height="698.3" viewBox="0 0 665.9 698.3">
  <defs>
    <style>
      .cls-1 {
        fill: #fff;
      }

      .cls-2 {
        fill: #84cef2;
      }

      .cls-3 {
        fill: #14254c;
      }

      .cls-4 {
        fill: #fab16a;
      }

      .cls-5 {
        fill: none;
      }

      .cls-6 {
        fill: #dc7f1b;
      }

      .cls-7 {
        fill: #0a183d;
      }
    </style>
  </defs>
  <g>
    <circle class="cls-1" cx="189.4" cy="340.5" r="83.9"/>
    <path class="cls-2" d="M441,434.1l-80,9.5L345.2,322.4a56,56,0,0,1,55.4-64.8h0a56,56,0,0,1,55.3,64.8Z"/>
    <path class="cls-3" d="M482.7,325.2c-21.8,0-44.8-9-63.6-25.9a20.7,20.7,0,0,1,27.7-30.8c15.4,13.8,34.4,18.9,48.5,12.8,6.6-2.9,12.4-8.3,17.1-16.3,8.9-14.8,6.6-30.6,5.2-36.7a20.7,20.7,0,0,1,40.3-9.4c2.6,11,6.7,39.6-10,67.4-9.3,15.6-21.5,26.7-36.2,33A73.4,73.4,0,0,1,482.7,325.2Z"/>
    <polygon class="cls-2" points="517.1 163.5 510.5 247.2 567.3 243.3 544.7 158.8 517.1 163.5"/>
    <path class="cls-2" d="M485,180.5l-11.9-8.9a14.5,14.5,0,0,1-5.5-14.1l3.3-17.5a3,3,0,0,1,4.9-1.8l1.6,1.3a2.9,2.9,0,0,1,1.1,1.9Z"/>
    <path class="cls-4" d="M452.1,675.7a12.4,12.4,0,0,1-5.6-1.3,12.6,12.6,0,0,1-5.5-16.8l52.5-103.2a12.4,12.4,0,1,1,22.1,11.2L463.2,668.9A12.5,12.5,0,0,1,452.1,675.7Z"/>
    <path class="cls-4" d="M440.2,662.5A12.7,12.7,0,0,0,453,675.9h4.8l43.3-.6a7.8,7.8,0,0,0,1.1-15.5l-23-4-23.8-4.9a12.6,12.6,0,0,0-15.2,11.6Z"/>
    <path class="cls-4" d="M123.6,675.7a12,12,0,0,1-8.2-3.1,12.3,12.3,0,0,1-1.1-17.5l98.5-111.8a12.4,12.4,0,1,1,18.6,16.5L132.9,671.5A12.4,12.4,0,0,1,123.6,675.7Z"/>
    <path class="cls-4" d="M136.1,662.5a12.7,12.7,0,0,1-12.8,13.4h-4.8l-43.3-.6a7.8,7.8,0,0,1-1.1-15.5l23-4,23.8-4.9a12.7,12.7,0,0,1,15.2,11.6Z"/>
    <path d="M422,461l-70.9,80.8-.4.5-56.2,94.6a3.9,3.9,0,0,1-3.1,1.8L72.8,640.3a3.5,3.5,0,0,1-2.5-6.1L186.1,518.7l1-.7,176.4-83.7a3.3,3.3,0,0,1,2.9-.1l54.2,21.1A3.6,3.6,0,0,1,422,461Z"/>
    <path d="M430.4,417.5,547.1,519.7a3.6,3.6,0,0,1,1,3.9L510,638.7a3.5,3.5,0,0,1-3.4,2.5l-137.8-.8a3.6,3.6,0,0,1-3.3-4.9L403.8,537a3.7,3.7,0,0,0,.2-1.8L389.3,430.3a3.7,3.7,0,0,1,2.6-4l35.2-9.6A3.6,3.6,0,0,1,430.4,417.5Z"/>
    <polygon points="355 258 324.5 288.4 350.6 298.9 382.8 265.8 382.8 224.1 355 224.1 355 258"/>
    <path class="cls-3" d="M353.2,405.4l93.9-9.3L443,429.3a43.6,43.6,0,0,1-41.9,38.1h0a43.4,43.4,0,0,1-44.1-37Z"/>
    <g>
      <path class="cls-3" d="M510.9,460.6l-48.4,41.8a3,3,0,0,1-4.5-.6l-45.9-70a2.9,2.9,0,0,1,.9-4.1l26.4-16.5a3,3,0,0,1,3.3,0l67.9,44.7A2.9,2.9,0,0,1,510.9,460.6Z"/>
      <path class="cls-3" d="M305.5,479l-19.8-18a3,3,0,0,1,.8-4.9l76.2-36.5a2.8,2.8,0,0,1,3.3.6l20,19.6a3,3,0,0,1-.8,4.9l-76.4,34.8A3.1,3.1,0,0,1,305.5,479Z"/>
      <path class="cls-3" d="M325.1,477,378,435.3a1.9,1.9,0,0,1,1-.5l46.9-14.3a3.1,3.1,0,0,1,3.9,2.6l8.7,82.3a3,3,0,0,1-3.7,3.3L326.2,482.3A3,3,0,0,1,325.1,477Z"/>
    </g>
    <g>
      <path class="cls-2" d="M415.6,171.3l11.2-33.4a18.3,18.3,0,0,1,17-12.6h0A18.5,18.5,0,0,0,461.7,108l1.2-19,10.4,2.8-3,24.9A18.5,18.5,0,0,1,451.6,133h-3.4a18.8,18.8,0,0,0-16.5,9.5Z"/>
      <path class="cls-2" d="M415.7,170.8l19.7-22.5a18.9,18.9,0,0,1,15.1-6.3l8.2.5a18.6,18.6,0,0,0,18.5-12l7.7-20.9,11.1,3.9-11.9,27.7a18.6,18.6,0,0,1-20,10.9l-11.3-1.9a18.4,18.4,0,0,0-14,3.4Z"/>
      <path d="M373.2,258l41.7,36.5,50.4-20L437,251.8a17.1,17.1,0,0,1-6.4-13.4V212.8H373.2V258Z"/>
      <path class="cls-3" d="M354.5,196.3v44.3A17.4,17.4,0,0,0,371.9,258h15.7A43.4,43.4,0,0,0,431,214.5V170.2a17.4,17.4,0,0,0-17.4-17.4H398A43.5,43.5,0,0,0,354.5,196.3Z"/>
      <path class="cls-4" d="M411.2,212.5v-2.8a32.5,32.5,0,0,0-32.6-32.5h0a32.6,32.6,0,0,0-19.8,6.7,42.3,42.3,0,0,0-1.8,12.4v40.4a32.5,32.5,0,0,0,21.6,8.2h0A32.4,32.4,0,0,0,411.2,212.5Z"/>
      <path class="cls-5" d="M413.6,201.9a43.4,43.4,0,0,0-37.7-43,43.4,43.4,0,0,0-21.4,37.4v44.3a11.1,11.1,0,0,0,.2,1.9,41.9,41.9,0,0,0,15.5,2.9A43.4,43.4,0,0,0,413.6,201.9Z"/>
      <polygon class="cls-6" points="360.4 219.8 376.1 219.8 376.1 192.8 360.4 219.8"/>
      <rect class="cls-3" x="356.6" y="186.7" width="73.1" height="3.48"/>
      <rect class="cls-3" x="354.5" y="202.4" width="75.2" height="3.48"/>
      <rect class="cls-3" x="354.5" y="233.7" width="60.4" height="3.48"/>
      <path class="cls-1" d="M398.6,199.3H395a2.6,2.6,0,0,1-2.5-2.6h0A2.6,2.6,0,0,1,395,194h3.6a2.6,2.6,0,0,1,2.5,2.6h0A2.6,2.6,0,0,1,398.6,199.3Z"/>
      <path class="cls-1" d="M363.1,199.3h-3.6a2.6,2.6,0,0,1-2.5-2.6h0a2.6,2.6,0,0,1,2.5-2.6h3.6a2.6,2.6,0,0,1,2.5,2.6h0A2.6,2.6,0,0,1,363.1,199.3Z"/>
      <circle cx="393.7" cy="196.6" r="2.6"/>
      <circle cx="358.8" cy="196.6" r="2.6"/>
      <path class="cls-1" d="M376.2,231.8l-.4-3.1h.7a12.4,12.4,0,0,0,7.6-3,11.6,11.6,0,0,0,3.6-6.8l3.1.4a14.8,14.8,0,0,1-13.9,12.5Z"/>
      <rect class="cls-3" x="354.5" y="218" width="75.2" height="3.48"/>
    </g>
    <g>
      <path class="cls-4" d="M462.6,152.3l-58.5-3.2-155.5,3.3-112.5,2.8a3.8,3.8,0,0,0-3.8,3.8h0a4,4,0,0,0,3.8,3.9L248.6,166l155.5,3.2,58.5-3.3Z"/>
      <path d="M239.5,164.1v-9.8a2.8,2.8,0,0,1,2.8-2.7h6.4a2.8,2.8,0,0,1,2.8,2.7v9.8a2.9,2.9,0,0,1-2.8,2.8h-6.4A2.8,2.8,0,0,1,239.5,164.1Z"/>
      <path d="M132,161.7v-5.5a2.3,2.3,0,0,1,2.4-2.3h6.5a2.3,2.3,0,0,1,2.3,2.3v5.5a2.3,2.3,0,0,1-2.3,2.3h-6.5A2.3,2.3,0,0,1,132,161.7Z"/>
      <polygon points="572 170.2 572 147.9 462.2 152.3 462.2 165.9 572 170.2"/>
      <path d="M454.8,185.9V133.2A2.2,2.2,0,0,1,457,131h5.2a2.2,2.2,0,0,1,2.2,2.2v52.7a2.2,2.2,0,0,1-2.2,2.2H457A2.2,2.2,0,0,1,454.8,185.9Z"/>
    </g>
    <path class="cls-2" d="M540,132.9l-18.9,1.3a8.8,8.8,0,0,0-7.6,11.9l2.3,6.1a10.3,10.3,0,0,0,10.7,6.4l13.9-1.7a10.1,10.1,0,0,0,8.9-9.9v-5.2A8.8,8.8,0,0,0,540,132.9Z"/>
    <path class="cls-2" d="M531.7,180.1l-13.9-5.4a14.3,14.3,0,0,1-9.1-12.1l-1.5-17.7a3,3,0,0,1,4.2-3.1l2,.8a3.3,3.3,0,0,1,1.5,1.6Z"/>
    <path class="cls-7" d="M403.6,345.5a67.5,67.5,0,0,1-31.7-7.7A70.3,70.3,0,0,1,341.5,305a20.7,20.7,0,0,1,37.6-17.4c1.6,3.5,5.3,9.9,12.3,13.6,9.2,4.9,19,2.4,24.9.9,11.5-2.8,18.8-9.5,21.9-12.3,18.6-16.8,21.6-42,22-52a20.7,20.7,0,0,1,41.4,1.8c-.7,15.2-5.5,53.6-35.6,80.8a90.8,90.8,0,0,1-39.6,21.9A92.1,92.1,0,0,1,403.6,345.5Z"/>
    <g>
      <path class="cls-2" d="M505.4,137.1l-19-3.9a8.8,8.8,0,0,0-10.5,9l1.2,32.5,25.8,2,9.1-28.2A8.8,8.8,0,0,0,505.4,137.1Z"/>
      <polygon class="cls-2" points="476.6 167.8 450.8 247.7 506.9 257.1 504.6 169.7 476.6 167.8"/>
    </g>
    <polygon points="355 258 324.5 288.4 350.6 298.9 382.8 265.8 355 258"/>
    <g>
      <circle class="cls-2" cx="190" cy="340.7" r="11.8"/>
      <path class="cls-2" d="M190,367.8c-16.6,0-31.2-2-42-5.7-7.1-2.4-13.1-5.6-17.4-9.3s-6.9-8.1-6.9-12.1c0-7.9,8.6-15.5,23-20.6,11.8-4.1,27.2-6.3,43.3-6.3s31,2.2,42.7,6.2a54.3,54.3,0,0,1,16.7,8.9c4.5,3.7,6.9,7.8,6.9,11.8,0,8.1-9.7,16.3-25.1,21.5C220.2,365.8,205.6,367.8,190,367.8Zm0-48.4c-15.3,0-30.4,2.2-41.4,6.1-13.3,4.6-19.2,10.9-19.2,15.2s6.4,11.3,20.4,16.1c10.3,3.5,24.2,5.3,40.2,5.3s29-1.9,39.4-5.3c14.6-4.8,21.2-11.8,21.2-16.1,0-2.3-1.7-4.9-4.8-7.5s-8.7-5.7-14.9-7.8C219.7,321.5,205.2,319.4,190,319.4Z"/>
      <path class="cls-2" d="M163.1,399.7a11.8,11.8,0,0,1-6.3-1.6c-6.8-3.9-9.2-15.2-6.3-30.1,2.3-12.3,8-26.8,16.1-40.7h0c7.9-13.7,17.4-25.7,26.7-33.9a57.2,57.2,0,0,1,16.1-10.1c5.4-2,10.1-2,13.6,0,7,4.1,9.4,16.5,6.1,32.5-2.4,11.3-7.9,25-15.7,38.5s-17.3,26-25.9,33.5c-5.7,4.9-11.4,8.5-16.7,10.4A23.2,23.2,0,0,1,163.1,399.7Zm8.4-69.6c-7.6,13.2-13.3,27.4-15.5,38.9-2.6,13.8-.1,22.1,3.6,24.2s13,.1,24.1-9.6c8.2-7.2,16.8-18.3,24.8-32.2s12.8-26,15-36.8c3.1-15,.4-24.2-3.4-26.4-1.9-1.1-5-1-8.8.4s-9.3,4.8-14.2,9.1c-8.9,7.7-18,19.2-25.6,32.4Z"/>
      <path class="cls-2" d="M216.9,399.7c-6.5,0-14.6-3.8-23.1-11.1s-19.1-20.4-27.2-34.3h0c-7.9-13.7-13.6-27.9-16-40.1a53.6,53.6,0,0,1-.7-18.9c1-5.8,3.3-9.8,6.8-11.8,7-4.1,19,.1,31.1,10.9,8.7,7.7,17.7,19.3,25.6,32.8s13.9,28,16.1,39.2c1.4,7.4,1.7,14.2.6,19.7s-3.5,10-7,12.1A12.6,12.6,0,0,1,216.9,399.7Zm-45.4-48.2c7.6,13.2,17.1,25.1,26,32.8,10.6,9.1,19.1,11.1,22.7,9s6.6-11.2,3.7-25.7c-2.1-10.7-7.4-23.7-15.4-37.5s-16.2-24.2-24.4-31.5c-11.5-10.1-20.8-12.4-24.6-10.2-1.9,1.1-3.4,3.9-4,7.8a47.2,47.2,0,0,0,.7,16.9c2.3,11.6,7.7,25.2,15.3,38.4Z"/>
    </g>
  </g>
</svg>
