<svg id="Layer_1" data-name="Layer 1" xmlns="http://www.w3.org/2000/svg" width="665.9" height="698.3" viewBox="0 0 665.9 698.3">
  <defs>
    <style>
      .cls-1, .cls-5 {
        fill: #84cef2;
      }

      .cls-2, .cls-8 {
        fill: #fab16a;
      }

      .cls-3, .cls-6 {
        fill: #14254c;
      }

      .cls-4 {
        fill: #0a183d;
      }

      .cls-5, .cls-6, .cls-7, .cls-8, .cls-9 {
        fill-rule: evenodd;
      }

      .cls-7 {
        fill: #30495c;
      }

      .cls-9 {
        fill: #dc7f1b;
      }

      .cls-10 {
        fill: #fff;
      }
    </style>
  </defs>
  <g>
    <g>
      <polygon points="331.8 264.8 303.9 292.7 327.8 302.3 357.3 272 357.3 233.8 331.8 233.8 331.8 264.8"/>
      <path class="cls-1" d="M262.8,375.5l5.6-12.4a13.1,13.1,0,0,1,11.5-7.8l16.3-.5a2.7,2.7,0,0,1,2.6,4l-.8,1.8a3.2,3.2,0,0,1-1.5,1.3Z"/>
      <path class="cls-1" d="M309.8,414.9l-5.6-12.4a13.1,13.1,0,0,0-11.5-7.8l-16.3-.5a2.7,2.7,0,0,0-2.6,4l.8,1.8a2.8,2.8,0,0,0,1.5,1.3Z"/>
      <path class="cls-2" d="M489.3,675.7a11.2,11.2,0,0,1-10.1-6.2L416.7,547.3a11.4,11.4,0,0,1,4.9-15.4,11.6,11.6,0,0,1,15.4,5l62.4,122.3a11.3,11.3,0,0,1-4.9,15.3A12,12,0,0,1,489.3,675.7Z"/>
      <path class="cls-3" d="M236.4,391.2a19,19,0,0,1-12.8-5c-10.2-9.3-15.7-19.7-16.2-31-1.5-32.3,37.5-51.3,58.4-61.5A208.3,208.3,0,0,1,336.5,274a19,19,0,0,1,3.7,37.8,168.8,168.8,0,0,0-57.7,16c-7.6,3.7-18,8.8-26.2,14.6s-10.8,10.5-11,11,.8,2,3.8,4.7a19,19,0,0,1-12.7,33.1Z"/>
      <path class="cls-2" d="M500.8,663.7A11.6,11.6,0,0,1,489,675.9h-4.4l-39.6-.5a7.2,7.2,0,0,1-1-14.3l21.1-3.6,21.8-4.5a11.6,11.6,0,0,1,13.9,10.7Z"/>
      <path class="cls-2" d="M186.5,675.7a12,12,0,0,1-4.5-.9,11.4,11.4,0,0,1-5.9-15l54.6-126a11.4,11.4,0,0,1,20.9,9.1L197,668.9A11.4,11.4,0,0,1,186.5,675.7Z"/>
      <path class="cls-2" d="M198,663.7a11.5,11.5,0,0,1-11.7,12.2h-4.4l-39.7-.5a7.2,7.2,0,0,1-1-14.3l21.1-3.6,21.8-4.5A11.6,11.6,0,0,1,198,663.7Z"/>
      <path d="M363.5,425.7l-41,117.1-1.4,97.3a3.2,3.2,0,0,1-3.3,3.2H140.7a3.3,3.3,0,0,1-2.8-5.1l87.7-126.3,100.9-97.2Z"/>
      <path d="M403.7,405.6,530.3,639.2a3.2,3.2,0,0,1-2.9,4.8l-191.5-.7a3.2,3.2,0,0,1-3.3-3.2l-.7-93L354.1,420Z"/>
      <path class="cls-1" d="M403.5,424.8l-73.3,8.7L315.7,322.4A51.5,51.5,0,0,1,366.5,263h0a51.4,51.4,0,0,1,50.7,59.4Z"/>
      <path class="cls-3" d="M323,398.5l86.1-8.5-3.8,30.4a39.8,39.8,0,0,1-78.8,1Z"/>
      <g>
        <path class="cls-3" d="M449.5,450.9l-29.2,26a2.7,2.7,0,0,1-4.1-.6L376,415.4a2.8,2.8,0,0,1,1.5-4.2l21-6.4a2.7,2.7,0,0,1,2.6.5l48.3,41.5A2.7,2.7,0,0,1,449.5,450.9Z"/>
        <path class="cls-3" d="M299.7,466.6l-21-14.5a2.8,2.8,0,0,1-.1-4.5l51.1-37.5a2.8,2.8,0,0,1,2.9-.2l17.4,9.3a2.8,2.8,0,0,1,.5,4.5l-47.4,42.7A2.6,2.6,0,0,1,299.7,466.6Z"/>
        <path class="cls-3" d="M311,471.6l33.7-54.1,42.3-2.4a2.7,2.7,0,0,1,2.9,2.1l15.3,67.1Z"/>
      </g>
      <g>
        <path class="cls-2" d="M292.7,345.4l3.8-53.5-.7-142.6L295,46.2a3.7,3.7,0,0,0-3.5-3.6h0a3.6,3.6,0,0,0-3.6,3.4l-4.6,103.1-5.2,142.5,2.2,53.6Z"/>
        <path d="M285.2,140.8h9a2.6,2.6,0,0,1,2.5,2.6v5.8a2.6,2.6,0,0,1-2.6,2.5h-9a2.4,2.4,0,0,1-2.4-2.6v-5.9A2.5,2.5,0,0,1,285.2,140.8Z"/>
        <path d="M289,42.3h5a2.2,2.2,0,0,1,2.2,2.2v5.9a2.3,2.3,0,0,1-2.2,2.2h-5a2.1,2.1,0,0,1-2.1-2.2V44.5A2.3,2.3,0,0,1,289,42.3Z"/>
        <polygon points="274.6 445.4 295.2 445.8 292.7 345.1 280.2 344.9 274.6 445.4"/>
        <path d="M262.1,337.8l48.2.7a2.2,2.2,0,0,1,2,2.1v4.8a2,2,0,0,1-2,2l-48.3-.8a2,2,0,0,1-2-2v-4.8A2,2,0,0,1,262.1,337.8Z"/>
      </g>
      <path class="cls-1" d="M267,424.6l.2-17.8a8.2,8.2,0,0,1,10.2-7.7l28.8,7.5-3.3,23.5-27.1,2.6A8,8,0,0,1,267,424.6Z"/>
      <path class="cls-1" d="M305.6,385.1l-.3-17.7a8.1,8.1,0,0,0-10.1-7.7l-28.8,7.5,3.3,23.5,27.1,2.6A8,8,0,0,0,305.6,385.1Z"/>
      <polygon class="cls-1" points="272.6 362.5 246.5 353.5 214.9 394.2 279.7 387.1 272.6 362.5"/>
      <path class="cls-4" d="M362.8,439.8l-9.2-.3a19,19,0,1,1,2.9-37.9c23.2,1.7,34.2-6.6,37-9.2,18.8-17.4,17.4-63.5-14.7-104.5a19,19,0,0,1,30-23.4c20.3,26.1,32.6,56.3,34.5,85s-6.8,54.8-24,70.8C411.1,427.9,393.3,439.8,362.8,439.8Z"/>
      <polygon class="cls-1" points="300 401.9 369.2 399.8 369.2 452.8 292.9 426.5 300 401.9"/>
      <path d="M348.5,264.8l38.3,33.5L433,280l-26-20.8a15.8,15.8,0,0,1-5.9-12.3V223.4H348.5Z"/>
      <g>
        <g>
          <path id="Fill-7" class="cls-5" d="M388.5,181.7c14-7.2,21.2-15.6,25.3-22.2s6.3-14.7,13.6-17.7c4.4-1.9,7.3-.7,16.3-.8a97.8,97.8,0,0,0,19.8-2.3c.4,3.3.9,6.5,1.3,9.8a49.2,49.2,0,0,1-17.9,2.4c-7.9-.5-11-2.7-15.6-1.1-6.4,2.3-7.8,8.9-11.5,14.6S407.1,178.2,388.5,181.7Z"/>
          <path id="Fill-7-2" data-name="Fill-7" class="cls-5" d="M387.6,181.2c15.8-.5,25.9-5.1,32.4-9.3s11.1-9.2,19.8-10.2c6.4-.8,9.2,1.1,16.9.4a46,46,0,0,0,16.7-5l2.1,10.7a48,48,0,0,1-15.9,3.6c-8.9.5-12.5-1.9-19.7-.8s-10.9,4.8-16.6,8.3S406,186,387.6,181.2Z"/>
          <path id="Fill-12" class="cls-6" d="M385.6,165.5H371.2a40,40,0,0,0-40,40v31.4a25.4,25.4,0,0,0,25.4,25.3h19.6a25.3,25.3,0,0,0,25.3-25.3V181.5a16,16,0,0,0-15.9-16"/>
          <path id="Fill-14" class="cls-7" d="M397.9,219.4a31.7,31.7,0,1,1-31.7-31.7,31.6,31.6,0,0,1,31.7,31.7"/>
          <path class="cls-8" d="M393.7,203.9v-.3a31.6,31.6,0,0,0-54.9.1V235a31.6,31.6,0,0,0,54.9.1V203.9Z"/>
          <polygon id="Fill-20" class="cls-9" points="353.2 226.9 367.5 226.9 367.5 202.1 353.2 226.9"/>
        </g>
        <g>
          <path class="cls-10" d="M382.8,208.7h-3.3a2.3,2.3,0,0,1-2.3-2.4h0a2.3,2.3,0,0,1,2.3-2.3h3.3a2.3,2.3,0,0,1,2.3,2.3h0A2.3,2.3,0,0,1,382.8,208.7Z"/>
          <path class="cls-10" d="M350.3,208.7H347a2.3,2.3,0,0,1-2.3-2.4h0a2.3,2.3,0,0,1,2.3-2.3h3.3a2.3,2.3,0,0,1,2.3,2.3h0A2.3,2.3,0,0,1,350.3,208.7Z"/>
          <circle cx="377.2" cy="206.3" r="2.4"/>
          <circle cx="345.2" cy="206.3" r="2.4"/>
        </g>
      </g>
      <path class="cls-10" d="M367.3,240.7l-.3-3h.6a12.1,12.1,0,0,0,7.3-2.9,10.7,10.7,0,0,0,3.5-6.6l3,.4a14.2,14.2,0,0,1-4.5,8.4,14.4,14.4,0,0,1-9,3.7Z"/>
    </g>
    <g>
      <polygon id="Stroke-28" class="cls-3" points="334.6 199.8 400.2 199.8 400.2 196.6 334.6 196.6 334.6 199.8"/>
      <polygon id="Stroke-30" class="cls-3" points="334.6 214.1 400.2 214.1 400.2 211 334.6 211 334.6 214.1"/>
      <polygon id="Stroke-32" class="cls-3" points="334.6 242.9 396.3 242.9 396.3 239.5 334.6 239.5 334.6 242.9"/>
      <polygon id="Stroke-34" class="cls-3" points="334.6 228.5 400.2 228.5 400.2 225.1 334.6 225.1 334.6 228.5"/>
    </g>
  </g>
</svg>
