<svg id="Layer_1" data-name="Layer 1" xmlns="http://www.w3.org/2000/svg" width="665.9" height="698.3" viewBox="0 0 665.9 698.3">
  <defs>
    <style>
      .cls-1 {
        fill: #14254c;
      }

      .cls-2 {
        fill: #fab16a;
      }

      .cls-3 {
        fill: #84cef2;
      }

      .cls-4 {
        fill: none;
      }

      .cls-5 {
        fill: #dc7f1b;
      }

      .cls-6 {
        fill: #fff;
      }
    </style>
  </defs>
  <g>
    <path class="cls-1" d="M522.3,190.3,506,230.9a17.2,17.2,0,0,1-22.3,9.6l-14.3-5.8A42.9,42.9,0,0,1,445.5,179l16.3-40.6a17.2,17.2,0,0,1,22.3-9.6l14.4,5.8A42.9,42.9,0,0,1,522.3,190.3Z"/>
    <path class="cls-2" d="M338.1,675.7a11.3,11.3,0,0,1-3.6-.6,12.2,12.2,0,0,1-8.1-15.3l44.4-141.2a12.3,12.3,0,1,1,23.4,7.4L349.8,667.1A12.1,12.1,0,0,1,338.1,675.7Z"/>
    <path class="cls-1" d="M482.6,425.2a20.6,20.6,0,0,1-18.5-11.6,224,224,0,0,1-14.8-150.8,20.4,20.4,0,1,1,39.6,10A181.9,181.9,0,0,0,501.1,396a20.4,20.4,0,0,1-9.7,27.2A19.8,19.8,0,0,1,482.6,425.2Z"/>
    <path class="cls-2" d="M325.8,662.7a12.5,12.5,0,0,0,12.6,13.2h4.8l42.7-.6a7.6,7.6,0,0,0,7.5-6.5A7.8,7.8,0,0,0,387,660l-22.8-4-23.4-4.8a12.5,12.5,0,0,0-15,11.5Z"/>
    <path class="cls-2" d="M466.9,675.7a11.7,11.7,0,0,1-3.2-.4,12.4,12.4,0,0,1-8.7-15l39.5-147a12.2,12.2,0,1,1,23.6,6.4L478.7,666.6A12.2,12.2,0,0,1,466.9,675.7Z"/>
    <path class="cls-2" d="M454.6,662.7a12.4,12.4,0,0,0,12.6,13.2h4.7l42.7-.6a7.5,7.5,0,0,0,7.5-6.5,7.7,7.7,0,0,0-6.4-8.8L493,656l-23.5-4.8a12.4,12.4,0,0,0-14.9,11.5Z"/>
    <polygon points="401.1 392.1 434.5 524 428.1 640.5 545.4 641.2 527.7 510.7 444.5 395.3 401.1 392.1"/>
    <polygon points="371.1 373.1 273.8 641.6 418 640.9 426.8 524.8 424.5 388.6 371.1 373.1"/>
    <polygon points="499.2 246.7 515.9 285.7 488.2 285.7 470.9 243.6 486.2 205.4 511.7 215.7 499.2 246.7"/>
    <polygon class="cls-3" points="534.2 453.5 495 378.2 446.2 400.5 513.5 469.6 534.2 453.5"/>
    <path class="cls-3" d="M537.8,508.7a4.9,4.9,0,0,0,5.1,1.3l13.3-4.7a4.7,4.7,0,0,0,2.5-6.7L526.9,440l-18.5,18.7a10,10,0,0,0-1,12.6Z"/>
    <path class="cls-3" d="M363.5,377.8l69.7,38.1,59-105.2A55.3,55.3,0,0,0,465.3,231h0a55.4,55.4,0,0,0-74.5,39.1Z"/>
    <path class="cls-3" d="M524.7,456.4l14.5,1.3a14.3,14.3,0,0,1,12,9.1l6.3,16.4a3.1,3.1,0,0,1-3.3,4.1l-2-.3a3.5,3.5,0,0,1-1.9-1Z"/>
    <path class="cls-1" d="M454.6,382.4,371,341.6l-7.7,32.1a42.9,42.9,0,0,0,25.6,49.6h0a42.9,42.9,0,0,0,53.6-19Z"/>
    <g>
      <path class="cls-1" d="M323.7,443.3l60.5,17.9a3,3,0,0,0,3.8-2.4l12.9-81.5a3,3,0,0,0-2.6-3.4l-30.4-4.1a2.9,2.9,0,0,0-2.9,1.3l-43,67.8A3,3,0,0,0,323.7,443.3Z"/>
      <path class="cls-1" d="M504.2,424l-58.1-32.4a2,2,0,0,0-1.1-.3l-47.9-6.5a3,3,0,0,0-3.4,3.1l4.5,81.6a3,3,0,0,0,4.1,2.6l101.6-42.8A2.9,2.9,0,0,0,504.2,424Z"/>
    </g>
    <path class="cls-1" d="M347.8,379.6a20,20,0,0,1-14.6-6.2,122.6,122.6,0,0,1-19-25.3c-10-17.9-13.9-36.6-11.1-54,3.8-24.5,20.3-47.1,45.3-62.1s56.7-21.2,88.6-16.9a20.4,20.4,0,1,1-5.3,40.5c-46.9-6.2-84.2,18.6-88.3,44.8-3.2,20.5,15.3,40.7,19.1,44.5a20.5,20.5,0,0,1-.4,28.9A20.3,20.3,0,0,1,347.8,379.6Z"/>
    <g>
      <path class="cls-3" d="M479.4,144.7l-24.1-25.1a18.3,18.3,0,0,0-20.5-4h0a18.3,18.3,0,0,1-23.3-7.8l-9.2-16.5-8,6.9,13.2,21a18.3,18.3,0,0,0,23.6,6.6l3-1.5a18.3,18.3,0,0,1,18.7,1.5Z"/>
      <path class="cls-3" d="M479.1,144.3l-27.2-11.7a18,18,0,0,0-16,.7l-7.1,4a18.3,18.3,0,0,1-21.6-2.9l-15.7-15.3-8.3,8.1,22.4,19.6a18.3,18.3,0,0,0,22.4,1.3l9.3-6.5a18.7,18.7,0,0,1,14-2.9Z"/>
      <path d="M482.5,240l-51.6,18.1-38.8-36.8,34.2-10.4a17,17,0,0,0,10.9-9.9l9.4-23.5,52.5,21.1Z"/>
      <path class="cls-1" d="M522.3,190.3,506,230.9a17.2,17.2,0,0,1-22.3,9.6l-14.3-5.8A42.9,42.9,0,0,1,445.5,179l16.3-40.6a17.2,17.2,0,0,1,22.3-9.6l14.4,5.8A42.9,42.9,0,0,1,522.3,190.3Z"/>
      <path class="cls-2" d="M464.5,184.3l1-2.5A32,32,0,0,1,507.2,164h0a31.6,31.6,0,0,1,15.7,13.5,42.3,42.3,0,0,1-2.9,11.9l-14.8,37a32.3,32.3,0,0,1-22.9-.3h0A32.2,32.2,0,0,1,464.5,184.3Z"/>
      <path class="cls-4" d="M466.1,173.8a42.9,42.9,0,0,1,50.4-25.6,43,43,0,0,1,5.8,42.1L506,230.9a8.9,8.9,0,0,1-.8,1.7,41.2,41.2,0,0,1-15.3-3A42.9,42.9,0,0,1,466.1,173.8Z"/>
      <polygon class="cls-5" points="508.3 209.7 493.9 203.9 503.8 179.2 508.3 209.7"/>
      <rect class="cls-1" x="488.1" y="132.9" width="3.4" height="72.13" transform="translate(150.6 560.7) rotate(-68.1)"/>
      <rect class="cls-1" x="483.3" y="146.6" width="3.4" height="74.19" transform="translate(134 565.4) rotate(-68.1)"/>
      <rect class="cls-1" x="478.5" y="185.3" width="3.4" height="59.61" transform="matrix(0.37, -0.93, 0.93, 0.37, 101.88, 580.75)"/>
      <rect class="cls-1" x="477.5" y="160.9" width="3.4" height="74.19" transform="translate(117.1 569.1) rotate(-68.1)"/>
      <rect class="cls-6" x="479.2" y="172.6" width="8.5" height="5.16" rx="2.5" transform="translate(867 517.7) rotate(-158.1)"/>
      <rect class="cls-6" x="511.7" y="185.6" width="8.5" height="5.16" rx="2.5" transform="translate(924.7 554.9) rotate(-158.1)"/>
      <circle cx="486.9" cy="176.2" r="2.6"/>
      <circle cx="518.8" cy="189.1" r="2.6"/>
    </g>
    <polygon class="cls-3" points="397.8 394.2 352.1 325.2 310.3 362.7 379.1 414.7 397.8 394.2"/>
    <path class="cls-3" d="M384,388.3l14.6,1.8a14.3,14.3,0,0,1,11.6,9.4l5.8,16.6a3,3,0,0,1-3.3,4l-2-.4a3.2,3.2,0,0,1-1.9-1Z"/>
    <g>
      <path class="cls-2" d="M368.4,432.7l-51,27.2L176.8,521.5,75,565.9a3.9,3.9,0,0,1-5-1.9h0a3.8,3.8,0,0,1,1.8-5l99.4-49.6L309,441.9l53.7-21.4Z"/>
      <rect x="163.6" y="510.9" width="15.1" height="11.76" rx="2.7" transform="translate(-225.6 889.5) rotate(-114.9)"/>
      <rect x="69.8" y="556.3" width="10" height="11.03" rx="2.3" transform="translate(-403.4 866.2) rotate(-114.9)"/>
      <polygon points="458.9 371.1 468.2 391.2 368.1 432.8 362.4 420.6 458.9 371.1"/>
      <rect x="334.6" y="422.7" width="56.3" height="9.53" rx="2.2" transform="translate(127.6 936.3) rotate(-114.9)"/>
    </g>
    <path class="cls-3" d="M387.8,435.5l18.2-6a8.8,8.8,0,0,0,4.7-12.9l-17-27.2-23.1,11,6,28.6A8.7,8.7,0,0,0,387.8,435.5Z"/>
  </g>
</svg>
