<svg id="Layer_1" data-name="Layer 1" xmlns="http://www.w3.org/2000/svg" width="665.9" height="698.3" viewBox="0 0 665.9 698.3">
  <defs>
    <style>
      .cls-1, .cls-7 {
        fill: #14254c;
      }

      .cls-2, .cls-6 {
        fill: #84cef2;
      }

      .cls-3 {
        fill: #0c2749;
      }

      .cls-4 {
        fill: #0c1b38;
      }

      .cls-5, .cls-9 {
        fill: #fab16a;
      }

      .cls-10, .cls-6, .cls-7, .cls-8, .cls-9 {
        fill-rule: evenodd;
      }

      .cls-8 {
        fill: #31475c;
      }

      .cls-10 {
        fill: #dc7f1b;
      }

      .cls-11 {
        fill: #fff;
      }
    </style>
  </defs>
  <g>
    <path class="cls-1" d="M275.4,532.4a22.8,22.8,0,0,1-18.6-9.4c-16.1-22.4-26.1-48.2-28.7-74.7s2.2-53.6,14.4-76.7c22.4-42.9,62.4-60.5,78.6-66.1A22.9,22.9,0,0,1,336,348.8c-11,3.8-38.1,15.7-53,44.1-16.3,31-12,71.6,10.9,103.2a22.8,22.8,0,0,1-18.5,36.3Z"/>
    <path d="M194.2,606.8l3.9-48.8a4,4,0,0,1,1.8-3.1L315.4,483a3.8,3.8,0,0,1,1.5-.5l30-4.2a4.1,4.1,0,0,1,4.6,3.9l.7,32.9a2.8,2.8,0,0,1-.1.9l-18.2,93.5a3.8,3.8,0,0,1-3.9,3.2l-131.8-1.6A4.1,4.1,0,0,1,194.2,606.8Z"/>
    <path d="M342.2,609.4l8.1-129.1a3.9,3.9,0,0,1,3.6-3.7l39.5-3a3.9,3.9,0,0,1,3.1,1.1L476,554.2a3.8,3.8,0,0,1,1.1,2.3l7,51.8a3.9,3.9,0,0,1-3.9,4.5l-134.1.8A3.9,3.9,0,0,1,342.2,609.4Z"/>
    <path class="cls-2" d="M399.8,487.5l-88.4,10.6-17.5-134a61.9,61.9,0,0,1,61.2-71.6h0a61.9,61.9,0,0,1,61.2,71.6Z"/>
    <path class="cls-1" d="M301.9,459.9,405.6,449l-4.3,36.8a48,48,0,0,1-95.1,1.8Z"/>
    <g>
      <path class="cls-1" d="M454.8,522.2l-35,31.5a3.2,3.2,0,0,1-4.9-.6l-49-73.2a3.3,3.3,0,0,1,1.7-5l25.3-7.9a3.4,3.4,0,0,1,3.2.6l58.6,49.6A3.3,3.3,0,0,1,454.8,522.2Z"/>
      <path class="cls-3" d="M274.2,542.4,248.8,525a3.3,3.3,0,0,1-.1-5.4L310,474a3.2,3.2,0,0,1,3.5-.3l21,11.1a3.3,3.3,0,0,1,.7,5.3l-56.9,52A3.5,3.5,0,0,1,274.2,542.4Z"/>
      <path class="cls-1" d="M287.9,548.2l40.2-65.5,51.1-3.2a3.2,3.2,0,0,1,3.4,2.5l19.1,80.8Z"/>
    </g>
    <path class="cls-4" d="M433.1,520.4a22.5,22.5,0,0,1-15.5-6.1,22.8,22.8,0,0,1-1.3-32.3c7.8-8.5,26-31.7,26-63.6,0-17.2-5.3-34.3-15.3-49.6a109.5,109.5,0,0,0-42.1-37.3,22.9,22.9,0,1,1,20.7-40.8,154.7,154.7,0,0,1,59.7,53c14.9,22.7,22.8,48.5,22.8,74.6.1,48.1-26.7,82.3-38.2,94.7A22.9,22.9,0,0,1,433.1,520.4Z"/>
    <g>
      <path class="cls-5" d="M447.3,636.4l-64.7-3.7L210.7,636,86.3,638.8a4.2,4.2,0,0,0-4.2,4.2h0a4.3,4.3,0,0,0,4.1,4.3L210.6,651l172,3.9,64.6-3.5Z"/>
      <rect x="198.7" y="636.9" width="16.9" height="13.18" rx="3" transform="translate(851 437.4) rotate(90.1)"/>
      <rect x="82.3" y="636.8" width="11.2" height="12.36" rx="2.6" transform="translate(731.1 556) rotate(90.1)"/>
      <polygon points="568.2 656.5 568.2 631.7 446.9 636.4 446.9 651.4 568.2 656.5"/>
      <rect x="412.4" y="639" width="63.1" height="10.68" rx="2.5" transform="translate(1089 201.4) rotate(90.1)"/>
    </g>
    <polygon points="313.3 294.6 279.7 328.3 308.5 339.8 344.1 303.3 344.1 257.2 313.3 257.2 313.3 294.6"/>
    <path d="M333.5,294.6,379.6,335l55.8-22.1L404,287.8a18.9,18.9,0,0,1-7.1-14.8V244.7H333.5Z"/>
    <g>
      <g>
        <path id="Fill-7" class="cls-6" d="M381.7,194.4c16.8-8.7,25.6-18.9,30.6-26.9s7.6-17.6,16.3-21.3c5.4-2.3,8.8-.8,19.7-.9a115.5,115.5,0,0,0,23.9-2.9l1.6,12a61.7,61.7,0,0,1-21.7,2.8c-9.5-.6-13.2-3.3-18.8-1.3-7.6,2.8-9.3,10.7-13.8,17.6S404.2,190.1,381.7,194.4Z"/>
        <path id="Fill-7-2" data-name="Fill-7" class="cls-6" d="M380.6,193.8c19-.7,31.3-6.1,39.2-11.3s13.4-11,23.8-12.3c7.7-1,11.1,1.3,20.4.5a55.2,55.2,0,0,0,20.1-6l2.5,12.9a60.4,60.4,0,0,1-19.1,4.4c-10.8.5-15-2.4-23.8-1s-13.2,5.8-20,10S402.8,199.5,380.6,193.8Z"/>
        <path id="Fill-12" class="cls-7" d="M378.2,174.8H360.8a48.3,48.3,0,0,0-48.2,48.3v37.8a30.6,30.6,0,0,0,30.6,30.6h23.6a30.6,30.6,0,0,0,30.6-30.6V194.1a19.3,19.3,0,0,0-19.2-19.3"/>
        <path id="Fill-14" class="cls-8" d="M393,239.8a38.2,38.2,0,1,1-38.1-38.2A38.1,38.1,0,0,1,393,239.8"/>
        <path class="cls-9" d="M388,221.2v-.4a37.9,37.9,0,0,0-66.1.2v37.6a38.1,38.1,0,0,0,66.3.2Z"/>
        <polygon id="Fill-20" class="cls-10" points="339.1 248.9 356.4 248.9 356.4 219 339.1 248.9"/>
        <g>
          <polygon id="Stroke-28" class="cls-1" points="316.7 216.1 395.9 216.1 395.9 212.4 316.7 212.4 316.7 216.1"/>
          <polygon id="Stroke-30" class="cls-1" points="316.7 233.5 395.9 233.5 395.9 229.7 316.7 229.7 316.7 233.5"/>
          <polygon id="Stroke-32" class="cls-1" points="316.7 268.2 391.1 268.2 391.1 264.1 316.7 264.1 316.7 268.2"/>
          <polygon id="Stroke-34" class="cls-1" points="316.7 250.8 395.9 250.8 395.9 246.7 316.7 246.7 316.7 250.8"/>
        </g>
      </g>
      <g>
        <rect class="cls-11" x="369.9" y="220.7" width="9.5" height="5.78" rx="2.8"/>
        <rect class="cls-11" x="330.7" y="220.7" width="9.5" height="5.78" rx="2.8"/>
        <circle cx="374" cy="226" r="2.9"/>
        <circle cx="335.5" cy="226" r="2.9"/>
      </g>
    </g>
    <g>
      <polygon class="cls-2" points="338.1 540.9 281.4 467.5 237.8 512.8 319 565.3 338.1 540.9"/>
      <path class="cls-2" d="M313.9,545.1l9.3-13.5a15.8,15.8,0,0,1,15.4-6.7l19.4,2.8a3.4,3.4,0,0,1,2.3,5.4l-1.4,1.8a3.4,3.4,0,0,1-2,1.3Z"/>
      <path class="cls-2" d="M362.7,565.7l3.5-21.1a9.8,9.8,0,0,0-10.4-11.3L320,536l-1.1,28.6,31.5,8.9A9.7,9.7,0,0,0,362.7,565.7Z"/>
    </g>
    <g>
      <polygon class="cls-2" points="376.6 526.6 433.3 453.1 477 498.5 395.8 550.9 376.6 526.6"/>
      <path class="cls-2" d="M400.9,530.8l-9.3-13.6a16.3,16.3,0,0,0-15.4-6.7l-19.5,2.8a3.4,3.4,0,0,0-2.2,5.4l1.4,1.9a3.9,3.9,0,0,0,2,1.3Z"/>
      <path class="cls-2" d="M352.1,551.4l-3.5-21.1A9.8,9.8,0,0,1,359,519l35.8,2.7,1.1,28.6-31.6,8.9A9.7,9.7,0,0,1,352.1,551.4Z"/>
    </g>
  </g>
</svg>
