<svg id="Layer_1" data-name="Layer 1" xmlns="http://www.w3.org/2000/svg" viewBox="0 0 360 361"><defs><style>.cls-1,.cls-10,.cls-2,.cls-5,.cls-6,.cls-7{fill:none;stroke-miterlimit:10;}.cls-1{stroke:#e0e0e0;}.cls-1,.cls-2,.cls-5,.cls-6,.cls-7{stroke-width:0.5px;}.cls-2,.cls-6{stroke:#455b66;}.cls-3{fill:#455b66;}.cls-11,.cls-4{isolation:isolate;}.cls-4{font-size:16px;}.cls-11,.cls-4,.cls-9{font-family:OpenSans, Open Sans;}.cls-5,.cls-7{stroke:#11cc71;}.cls-6,.cls-7{stroke-dasharray:4;}.cls-8{fill:#3d5afe;}.cls-9{font-size:12px;}.cls-10{stroke:#000;}.cls-11{font-size:14px;fill:#11cc71;}</style></defs><title>doc article</title><line class="cls-1" x1="18.08" y1="320" x2="146.92" y2="211"/><line class="cls-1" x1="18.08" y1="297" x2="146.92" y2="188"/><line class="cls-1" x1="18.08" y1="274" x2="146.92" y2="165"/><line class="cls-1" x1="18.08" y1="251" x2="146.92" y2="142"/><line class="cls-1" x1="18.08" y1="228" x2="146.92" y2="119"/><line class="cls-1" x1="18.08" y1="205" x2="146.92" y2="96"/><line class="cls-1" x1="18.08" y1="182" x2="146.92" y2="73"/><line class="cls-1" x1="18.08" y1="159" x2="146.92" y2="50"/><line class="cls-1" x1="18.08" y1="136" x2="146.92" y2="27"/><line class="cls-1" x1="131" y1="248" x2="131" y2="41"/><line class="cls-1" x1="115" y1="261" x2="115" y2="54"/><line class="cls-1" x1="99" y1="275" x2="99" y2="68"/><line class="cls-1" x1="83" y1="288" x2="83" y2="81"/><line class="cls-1" x1="67" y1="302" x2="67" y2="95"/><line class="cls-1" x1="50" y1="316" x2="50" y2="109"/><line class="cls-1" x1="34" y1="329" x2="34" y2="122"/><line class="cls-1" x1="18" y1="343" x2="18" y2="136"/><line class="cls-2" x1="147" y1="234" x2="147" y2="9.98"/><polygon class="cls-3" points="148.85 11.39 147 10.6 145.15 11.39 147 7 148.85 11.39"/><line class="cls-1" x1="170" y1="234" x2="170" y2="27"/><line class="cls-1" x1="193" y1="234" x2="193" y2="27"/><line class="cls-1" x1="216" y1="234" x2="216" y2="27"/><line class="cls-1" x1="239" y1="234" x2="239" y2="27"/><line class="cls-1" x1="262" y1="234" x2="262" y2="27"/><line class="cls-1" x1="285" y1="234" x2="285" y2="27"/><line class="cls-1" x1="308" y1="234" x2="308" y2="27"/><line class="cls-1" x1="331" y1="234" x2="331" y2="27"/><line class="cls-1" x1="331" y1="211" x2="147" y2="211"/><line class="cls-1" x1="331" y1="234" x2="147" y2="234"/><line class="cls-1" x1="331" y1="188" x2="147" y2="188"/><line class="cls-1" x1="331" y1="165" x2="147" y2="165"/><line class="cls-1" x1="331" y1="142" x2="147" y2="142"/><line class="cls-1" x1="331" y1="119" x2="147" y2="119"/><line class="cls-1" x1="331" y1="96" x2="147" y2="96"/><line class="cls-1" x1="331" y1="73" x2="147" y2="73"/><line class="cls-1" x1="331" y1="50" x2="147" y2="50"/><line class="cls-1" x1="331" y1="27" x2="147" y2="27"/><line class="cls-2" x1="347.93" y1="234" x2="146.92" y2="234"/><polygon class="cls-3" points="346.53 232.15 347.32 234 346.53 235.85 350.92 234 346.53 232.15"/><line class="cls-1" x1="314.81" y1="247.62" x2="130.81" y2="247.62"/><line class="cls-1" x1="298.71" y1="261.25" x2="114.71" y2="261.25"/><line class="cls-1" x1="282.6" y1="274.87" x2="98.6" y2="274.87"/><line class="cls-1" x1="266.5" y1="288.5" x2="82.5" y2="288.5"/><line class="cls-1" x1="250.4" y1="302.12" x2="66.4" y2="302.12"/><line class="cls-1" x1="234.29" y1="315.75" x2="50.29" y2="315.75"/><line class="cls-1" x1="218.19" y1="329.37" x2="34.19" y2="329.37"/><line class="cls-1" x1="202.08" y1="343" x2="18.08" y2="343"/><line class="cls-1" x1="202.08" y1="343" x2="330.92" y2="234"/><line class="cls-1" x1="179.08" y1="343" x2="307.92" y2="234"/><line class="cls-1" x1="156.08" y1="343" x2="284.92" y2="234"/><line class="cls-1" x1="133.08" y1="343" x2="261.92" y2="234"/><line class="cls-1" x1="110.08" y1="343" x2="238.92" y2="234"/><line class="cls-1" x1="87.08" y1="343" x2="215.92" y2="234"/><line class="cls-1" x1="64.08" y1="343" x2="192.92" y2="234"/><line class="cls-1" x1="41.08" y1="343" x2="169.92" y2="234"/><line class="cls-2" x1="6.36" y1="353.07" x2="146.92" y2="234"/><polygon class="cls-3" points="8.63 353.58 6.83 352.67 6.23 350.75 4.08 355 8.63 353.58"/><text class="cls-4" transform="translate(133.29 19.04)">z</text><text class="cls-4" transform="translate(338.62 249.5)">y</text><text class="cls-4" transform="translate(14.23 356.78)">x</text><line class="cls-5" x1="252" y1="130.5" x2="252" y2="267"/><line class="cls-6" x1="252" y1="129.5" x2="147" y2="234"/><line class="cls-6" x1="147" y1="234" x2="252" y2="267"/><line class="cls-7" x1="252" y1="268" x2="110.5" y2="266.09"/><line class="cls-5" x1="109.37" y1="265.81" x2="146.92" y2="234"/><circle class="cls-8" cx="252" cy="129.5" r="3"/><text class="cls-9" transform="translate(181 188.96) rotate(-44.36)">x</text><text class="cls-9" transform="translate(182.7 181.71) rotate(-44.36) scale(0.58)">2</text><text class="cls-9" transform="translate(188.35 181.77) rotate(-44.36)"><tspan xml:space="preserve"> + y</tspan></text><text class="cls-9" transform="translate(199.24 165.53) rotate(-44.36) scale(0.58)">2</text><text class="cls-9" transform="translate(204.9 165.59) rotate(-44.36)"><tspan xml:space="preserve"> + z</tspan></text><text class="cls-9" transform="translate(215.48 149.65) rotate(-44.36) scale(0.58)">2</text><polyline class="cls-10" points="171.1 188.85 179.18 193.54 170.94 181.66 215.06 138.51"/><text class="cls-9" transform="translate(208.54 249) rotate(18.13)">x</text><text class="cls-9" transform="translate(215.76 247.16) rotate(18.13) scale(0.58)">2</text><text class="cls-9" transform="translate(218.31 252.2) rotate(18.13)"><tspan xml:space="preserve"> + y</tspan></text><text class="cls-9" transform="translate(237.75 254.36) rotate(18.13) scale(0.58)">2</text><polyline class="cls-10" points="204.06 240.17 203.64 249.5 210.37 236.71 247.9 249"/><text class="cls-11" transform="translate(255 193.54)">z</text><text class="cls-11" transform="translate(123.23 245)">x</text><text class="cls-11" transform="translate(174.5 278.5)">y</text></svg>