<svg id="Layer_1" data-name="Layer 1" xmlns="http://www.w3.org/2000/svg" viewBox="0 0 400 210"><defs><style>.cls-1,.cls-4{fill:#fff;stroke-miterlimit:10;stroke-width:0.5px;}.cls-1{stroke:#455b66;}.cls-2{isolation:isolate;}.cls-2,.cls-3,.cls-5{font-size:18px;}.cls-2,.cls-3,.cls-5,.cls-6{font-family:OpenSans, Open Sans;}.cls-4{stroke:#3d5afe;}.cls-5{fill:#231f20;}.cls-6{font-size:21px;fill:#3d5afe;}</style></defs><title>doc article</title><rect class="cls-1" x="10" y="50" width="30" height="30"/><text class="cls-2" transform="translate(16 69.42)">А</text><text class="cls-3" transform="translate(27.39 75.42) scale(0.58)">0</text><rect class="cls-1" x="70" y="50" width="30" height="30"/><text class="cls-2" transform="translate(75.86 69.42)">B</text><text class="cls-3" transform="translate(87.53 75.42) scale(0.58)">0</text><rect class="cls-4" x="130" y="50" width="30" height="30"/><text class="cls-2" transform="translate(136.02 69.42)">C</text><text class="cls-3" transform="translate(147.37 75.42) scale(0.58)">0</text><rect class="cls-1" x="10" y="90" width="30" height="30"/><text class="cls-2" transform="translate(16 109.42)">А</text><text class="cls-3" transform="translate(27.39 115.42) scale(0.58)">1</text><rect class="cls-1" x="70" y="90" width="30" height="30"/><text class="cls-2" transform="translate(75.86 109.42)">B</text><text class="cls-3" transform="translate(87.53 115.42) scale(0.58)">1</text><rect class="cls-4" x="130" y="90" width="30" height="30"/><text class="cls-2" transform="translate(136.02 109.42)">C</text><text class="cls-3" transform="translate(147.37 115.42) scale(0.58)">1</text><rect class="cls-1" x="10" y="130" width="30" height="30"/><text class="cls-2" transform="translate(16 149.42)">А</text><text class="cls-3" transform="translate(27.39 155.42) scale(0.58)">2</text><rect class="cls-1" x="70" y="130" width="30" height="30"/><text class="cls-2" transform="translate(75.86 149.42)">B</text><text class="cls-3" transform="translate(87.53 155.42) scale(0.58)">2</text><rect class="cls-4" x="130" y="130" width="30" height="30"/><text class="cls-2" transform="translate(136.02 149.42)">C</text><text class="cls-3" transform="translate(147.37 155.42) scale(0.58)">2</text><rect class="cls-1" x="10" y="170" width="30" height="30"/><text class="cls-2" transform="translate(16 189.42)">А</text><text class="cls-3" transform="translate(27.39 195.42) scale(0.58)">3</text><rect class="cls-1" x="70" y="170" width="30" height="30"/><text class="cls-2" transform="translate(75.86 189.42)">B</text><text class="cls-3" transform="translate(87.53 195.42) scale(0.58)">3</text><rect class="cls-4" x="130" y="170" width="30" height="30"/><text class="cls-2" transform="translate(136.02 189.42)">C</text><text class="cls-3" transform="translate(147.37 195.42) scale(0.58)">3</text><text class="cls-5" transform="translate(52 68.49) scale(0.58)">+</text><text class="cls-5" transform="translate(112 68.49) scale(0.58)">=</text><text class="cls-5" transform="translate(52 108.49) scale(0.58)">+</text><text class="cls-5" transform="translate(112 108.49) scale(0.58)">=</text><text class="cls-5" transform="translate(52 148.49) scale(0.58)">+</text><text class="cls-5" transform="translate(112 148.49) scale(0.58)">=</text><text class="cls-5" transform="translate(52 188.49) scale(0.58)">+</text><text class="cls-5" transform="translate(112 188.49) scale(0.58)">=</text><rect class="cls-1" x="240" y="50" width="30" height="30"/><text class="cls-2" transform="translate(246 69.42)">А</text><text class="cls-3" transform="translate(257.39 75.42) scale(0.58)">0</text><rect class="cls-1" x="300" y="50" width="30" height="30"/><text class="cls-2" transform="translate(305.86 69.42)">B</text><text class="cls-3" transform="translate(317.53 75.42) scale(0.58)">0</text><rect class="cls-4" x="360" y="50" width="30" height="30"/><text class="cls-2" transform="translate(366.02 69.42)">C</text><text class="cls-3" transform="translate(377.37 75.42) scale(0.58)">0</text><rect class="cls-1" x="240" y="80" width="30" height="30"/><text class="cls-2" transform="translate(246 99.42)">А</text><text class="cls-3" transform="translate(257.39 105.42) scale(0.58)">1</text><rect class="cls-1" x="300" y="80" width="30" height="30"/><text class="cls-2" transform="translate(305.86 99.42)">B</text><text class="cls-3" transform="translate(317.53 105.42) scale(0.58)">1</text><rect class="cls-4" x="360" y="80" width="30" height="30"/><text class="cls-2" transform="translate(366.02 99.42)">C</text><text class="cls-3" transform="translate(377.37 105.42) scale(0.58)">1</text><rect class="cls-1" x="240" y="110" width="30" height="30"/><text class="cls-2" transform="translate(246 129.42)">А</text><text class="cls-3" transform="translate(257.39 135.42) scale(0.58)">2</text><rect class="cls-1" x="300" y="110" width="30" height="30"/><text class="cls-2" transform="translate(305.86 129.42)">B</text><text class="cls-3" transform="translate(317.53 135.42) scale(0.58)">2</text><rect class="cls-4" x="360" y="110" width="30" height="30"/><text class="cls-2" transform="translate(366.02 129.42)">C</text><text class="cls-3" transform="translate(377.37 135.42) scale(0.58)">2</text><rect class="cls-1" x="240" y="140" width="30" height="30"/><text class="cls-2" transform="translate(246 159.42)">А</text><text class="cls-3" transform="translate(257.39 165.42) scale(0.58)">3</text><rect class="cls-1" x="300" y="140" width="30" height="30"/><text class="cls-2" transform="translate(305.86 159.42)">B</text><text class="cls-3" transform="translate(317.53 165.42) scale(0.58)">3</text><rect class="cls-4" x="360" y="140" width="30" height="30"/><text class="cls-2" transform="translate(366.02 159.42)">C</text><text class="cls-3" transform="translate(377.37 165.42) scale(0.58)">3</text><text class="cls-5" transform="translate(282 113.49) scale(0.58)">+</text><text class="cls-5" transform="translate(342 113.49) scale(0.58)">=</text><text class="cls-6" transform="translate(10 28)">SISD operation</text><text class="cls-6" transform="translate(240 28)">SIMD operation</text></svg>