<svg id="Layer_1" data-name="Layer 1" xmlns="http://www.w3.org/2000/svg" viewBox="0 0 360 250"><defs><style>.cls-1,.cls-2,.cls-3,.cls-4,.cls-5{isolation:isolate;font-family:OpenSans, Open Sans;}.cls-1,.cls-4,.cls-5{font-size:24px;}.cls-1{fill:#11cc71;}.cls-2{font-size:21px;}.cls-2,.cls-5,.cls-6{fill:#3d5afe;}.cls-3{font-size:16px;}.cls-4{fill:#0169c9;}</style></defs><title>doc article</title><text class="cls-1" transform="translate(40 180.57)">2</text><text class="cls-1" transform="translate(40 240.57)">7</text><text class="cls-1" transform="translate(32 210.57)">-8</text><text class="cls-1" transform="translate(30 102.57)">2</text><text class="cls-1" transform="translate(100 102.57)">7</text><text class="cls-1" transform="translate(60 102.57)">-8</text><text class="cls-2" transform="translate(10 28)">Vector</text><text class="cls-3" transform="translate(10 63.71)">row</text><text class="cls-4" transform="translate(10 100.57)">[</text><text class="cls-5" transform="translate(10 100.57)">[</text><text class="cls-4" transform="translate(120 100.57)">]</text><text class="cls-5" transform="translate(120 100.57)">]</text><text class="cls-1" transform="translate(230 102.57)">6</text><text class="cls-1" transform="translate(295 102.57)">24</text><text class="cls-1" transform="translate(266 102.57)">4</text><text class="cls-1" transform="translate(230 132.57)">1</text><text class="cls-1" transform="translate(310 132.57)">8</text><text class="cls-1" transform="translate(260 132.57)">-9</text><text class="cls-2" transform="translate(210 28)">Matrix</text><text class="cls-3" transform="translate(210 63.71)">row(s) x column(s)</text><path class="cls-6" d="M217.3,134.4h-5.4v-51h5.4v1.7h-3.4v47.6h3.4Z"/><path class="cls-6" d="M330.6,132.7H334V85.1h-3.4V83.4H336v50.9h-5.4Z"/><text class="cls-3" transform="translate(10 143.71)">column</text><path class="cls-6" d="M17.3,242.4H11.9V161.5h5.4v1.7H13.9v77.6h3.4Z"/><path class="cls-6" d="M70.6,240.7H74V163.1H70.6v-1.7H76v80.9H70.6Z"/></svg>